<svg width="90" height="32" viewBox="0 0 90 32" fill="none" xmlns="http://www.w3.org/2000/svg">
<path d="M0.353135 7.77295V0.672949H1.05313V7.15295H5.15313V7.77295H0.353135ZM6.04321 7.77295V2.56295H6.72321V7.77295H6.04321ZM6.04321 1.47295V0.472949H6.72321V1.47295H6.04321ZM9.77095 7.77295L7.66095 2.56295H8.37095L10.1509 7.09295L11.9409 2.56295H12.6109L10.5009 7.77295H9.77095ZM16.153 3.16295C15.6996 3.17628 15.2996 3.30295 14.953 3.54295C14.613 3.78295 14.373 4.11295 14.233 4.53295V7.77295H13.553V2.56295H14.193V3.81295C14.373 3.44628 14.6096 3.14962 14.903 2.92295C15.203 2.69628 15.5196 2.56962 15.853 2.54295C15.9196 2.53628 15.9763 2.53295 16.023 2.53295C16.0763 2.53295 16.1196 2.53628 16.153 2.54295V3.16295ZM19.1128 7.87295C18.7395 7.87295 18.3928 7.80295 18.0728 7.66295C17.7595 7.51628 17.4862 7.31962 17.2528 7.07295C17.0262 6.81962 16.8495 6.53295 16.7228 6.21295C16.5962 5.88628 16.5328 5.54295 16.5328 5.18295C16.5328 4.80962 16.5962 4.46295 16.7228 4.14295C16.8495 3.81628 17.0295 3.52962 17.2628 3.28295C17.4962 3.02962 17.7695 2.83295 18.0828 2.69295C18.4028 2.54628 18.7495 2.47295 19.1228 2.47295C19.4962 2.47295 19.8395 2.54628 20.1528 2.69295C20.4662 2.83295 20.7395 3.02962 20.9728 3.28295C21.2062 3.52962 21.3862 3.81628 21.5128 4.14295C21.6395 4.46295 21.7028 4.80962 21.7028 5.18295C21.7028 5.54295 21.6395 5.88628 21.5128 6.21295C21.3862 6.53295 21.2062 6.81962 20.9728 7.07295C20.7462 7.31962 20.4728 7.51628 20.1528 7.66295C19.8395 7.80295 19.4928 7.87295 19.1128 7.87295ZM17.2228 5.19295C17.2228 5.57962 17.3062 5.93295 17.4728 6.25295C17.6462 6.56628 17.8762 6.81628 18.1628 7.00295C18.4495 7.18295 18.7662 7.27295 19.1128 7.27295C19.4595 7.27295 19.7762 7.17962 20.0628 6.99295C20.3495 6.80628 20.5795 6.55295 20.7528 6.23295C20.9262 5.90628 21.0128 5.55295 21.0128 5.17295C21.0128 4.78628 20.9262 4.43295 20.7528 4.11295C20.5795 3.79295 20.3495 3.53962 20.0628 3.35295C19.7762 3.16628 19.4595 3.07295 19.1128 3.07295C18.7662 3.07295 18.4495 3.16962 18.1628 3.36295C17.8828 3.55628 17.6562 3.81295 17.4828 4.13295C17.3095 4.44628 17.2228 4.79962 17.2228 5.19295ZM27.6389 7.87295C27.2656 7.87295 26.9189 7.80295 26.5989 7.66295C26.2789 7.51628 26.0022 7.31962 25.7689 7.07295C25.5356 6.81962 25.3522 6.52962 25.2189 6.20295C25.0922 5.87628 25.0289 5.52628 25.0289 5.15295C25.0289 4.66628 25.1389 4.21962 25.3589 3.81295C25.5856 3.40628 25.8956 3.08295 26.2889 2.84295C26.6822 2.59628 27.1289 2.47295 27.6289 2.47295C28.1422 2.47295 28.5889 2.59628 28.9689 2.84295C29.3556 3.08962 29.6589 3.41628 29.8789 3.82295C30.0989 4.22295 30.2089 4.66295 30.2089 5.14295C30.2089 5.19628 30.2089 5.24962 30.2089 5.30295C30.2089 5.34962 30.2056 5.38628 30.1989 5.41295H25.7389C25.7722 5.78628 25.8756 6.11962 26.0489 6.41295C26.2289 6.69962 26.4589 6.92962 26.7389 7.10295C27.0256 7.26962 27.3356 7.35295 27.6689 7.35295C28.0089 7.35295 28.3289 7.26628 28.6289 7.09295C28.9356 6.91962 29.1489 6.69295 29.2689 6.41295L29.8589 6.57295C29.7522 6.81962 29.5889 7.04295 29.3689 7.24295C29.1489 7.44295 28.8889 7.59962 28.5889 7.71295C28.2956 7.81962 27.9789 7.87295 27.6389 7.87295ZM25.7189 4.92295H29.5689C29.5422 4.54295 29.4389 4.20962 29.2589 3.92295C29.0856 3.63628 28.8556 3.41295 28.5689 3.25295C28.2889 3.08628 27.9789 3.00295 27.6389 3.00295C27.2989 3.00295 26.9889 3.08628 26.7089 3.25295C26.4289 3.41295 26.1989 3.63962 26.0189 3.93295C25.8456 4.21962 25.7456 4.54962 25.7189 4.92295ZM39.0081 7.77295H38.3281V4.86295C38.3281 4.25628 38.2314 3.80962 38.0381 3.52295C37.8447 3.23628 37.5581 3.09295 37.1781 3.09295C36.7847 3.09295 36.4314 3.23295 36.1181 3.51295C35.8114 3.79295 35.5947 4.15295 35.4681 4.59295V7.77295H34.7881V4.86295C34.7881 4.24962 34.6947 3.80295 34.5081 3.52295C34.3214 3.23628 34.0347 3.09295 33.6481 3.09295C33.2614 3.09295 32.9114 3.22962 32.5981 3.50295C32.2847 3.77628 32.0647 4.13628 31.9381 4.58295V7.77295H31.2581V2.56295H31.8781V3.74295C32.0981 3.33628 32.3781 3.02295 32.7181 2.80295C33.0647 2.58295 33.4481 2.47295 33.8681 2.47295C34.3014 2.47295 34.6514 2.59628 34.9181 2.84295C35.1847 3.08962 35.3481 3.41295 35.4081 3.81295C35.6481 3.37295 35.9347 3.03962 36.2681 2.81295C36.6081 2.58628 36.9914 2.47295 37.4181 2.47295C37.7114 2.47295 37.9581 2.52628 38.1581 2.63295C38.3647 2.73962 38.5281 2.89295 38.6481 3.09295C38.7747 3.28628 38.8647 3.52295 38.9181 3.80295C38.9781 4.07628 39.0081 4.38295 39.0081 4.72295V7.77295ZM45.2563 7.87295C44.8763 7.87295 44.5263 7.80295 44.2063 7.66295C43.893 7.51628 43.6163 7.31628 43.3763 7.06295C43.143 6.80962 42.9597 6.51962 42.8263 6.19295C42.6997 5.86628 42.6363 5.51962 42.6363 5.15295C42.6363 4.65962 42.7463 4.20962 42.9663 3.80295C43.1863 3.39628 43.493 3.07295 43.8863 2.83295C44.2797 2.59295 44.733 2.47295 45.2463 2.47295C45.733 2.47295 46.163 2.58628 46.5363 2.81295C46.9097 3.03295 47.1863 3.33295 47.3663 3.71295L46.7063 3.92295C46.5597 3.65628 46.353 3.44962 46.0863 3.30295C45.8263 3.14962 45.5363 3.07295 45.2163 3.07295C44.8697 3.07295 44.553 3.16295 44.2663 3.34295C43.9797 3.52295 43.7497 3.76962 43.5763 4.08295C43.4097 4.39628 43.3263 4.75295 43.3263 5.15295C43.3263 5.54628 43.413 5.90295 43.5863 6.22295C43.7597 6.54295 43.9897 6.79962 44.2763 6.99295C44.563 7.17962 44.8797 7.27295 45.2263 7.27295C45.453 7.27295 45.6697 7.23295 45.8763 7.15295C46.0897 7.07295 46.273 6.96628 46.4263 6.83295C46.5863 6.69295 46.693 6.54295 46.7463 6.38295L47.4163 6.58295C47.323 6.82962 47.1663 7.05295 46.9463 7.25295C46.733 7.44628 46.4797 7.59962 46.1863 7.71295C45.8997 7.81962 45.5897 7.87295 45.2563 7.87295ZM48.0646 6.27295C48.0646 5.94628 48.158 5.66628 48.3446 5.43295C48.5313 5.19295 48.788 5.00962 49.1146 4.88295C49.448 4.74962 49.8313 4.68295 50.2646 4.68295C50.518 4.68295 50.7813 4.70295 51.0546 4.74295C51.328 4.78295 51.5713 4.84295 51.7846 4.92295V4.48295C51.7846 4.04295 51.6546 3.69295 51.3946 3.43295C51.1346 3.17295 50.7746 3.04295 50.3146 3.04295C50.0346 3.04295 49.758 3.09628 49.4846 3.20295C49.218 3.30295 48.938 3.45295 48.6446 3.65295L48.3846 3.17295C48.7246 2.93962 49.058 2.76628 49.3846 2.65295C49.7113 2.53295 50.0446 2.47295 50.3846 2.47295C51.0246 2.47295 51.5313 2.65628 51.9046 3.02295C52.278 3.38962 52.4646 3.89628 52.4646 4.54295V6.95295C52.4646 7.04628 52.4846 7.11628 52.5246 7.16295C52.5646 7.20295 52.628 7.22628 52.7146 7.23295V7.77295C52.6413 7.77962 52.578 7.78628 52.5246 7.79295C52.4713 7.79962 52.4313 7.79962 52.4046 7.79295C52.238 7.78628 52.1113 7.73295 52.0246 7.63295C51.938 7.53295 51.8913 7.42628 51.8846 7.31295L51.8746 6.93295C51.6413 7.23295 51.338 7.46628 50.9646 7.63295C50.5913 7.79295 50.2113 7.87295 49.8246 7.87295C49.4913 7.87295 49.188 7.80295 48.9146 7.66295C48.648 7.51628 48.438 7.32295 48.2846 7.08295C48.138 6.83628 48.0646 6.56628 48.0646 6.27295ZM51.5546 6.67295C51.628 6.57962 51.6846 6.48962 51.7246 6.40295C51.7646 6.31628 51.7846 6.23962 51.7846 6.17295V5.41295C51.558 5.32628 51.3213 5.25962 51.0746 5.21295C50.8346 5.16628 50.5913 5.14295 50.3446 5.14295C49.858 5.14295 49.4646 5.23962 49.1646 5.43295C48.8646 5.62628 48.7146 5.88962 48.7146 6.22295C48.7146 6.41628 48.7646 6.59962 48.8646 6.77295C48.9646 6.93962 49.1113 7.07962 49.3046 7.19295C49.498 7.29962 49.7246 7.35295 49.9846 7.35295C50.3113 7.35295 50.6146 7.28962 50.8946 7.16295C51.1813 7.03628 51.4013 6.87295 51.5546 6.67295ZM56.5938 7.87295C56.1605 7.87295 55.7705 7.75962 55.4238 7.53295C55.0838 7.30628 54.8138 7.02628 54.6138 6.69295V9.90295H53.9338V2.56295H54.5438V3.57295C54.7505 3.24628 55.0272 2.98295 55.3738 2.78295C55.7205 2.57628 56.0905 2.47295 56.4838 2.47295C56.8438 2.47295 57.1738 2.54962 57.4738 2.70295C57.7738 2.84962 58.0338 3.04962 58.2538 3.30295C58.4738 3.55628 58.6438 3.84628 58.7638 4.17295C58.8905 4.49295 58.9538 4.82628 58.9538 5.17295C58.9538 5.65962 58.8538 6.10962 58.6538 6.52295C58.4605 6.92962 58.1872 7.25628 57.8338 7.50295C57.4805 7.74962 57.0672 7.87295 56.5938 7.87295ZM56.4038 7.27295C56.6905 7.27295 56.9472 7.21628 57.1738 7.10295C57.4005 6.98295 57.5938 6.82295 57.7538 6.62295C57.9205 6.42295 58.0472 6.19962 58.1338 5.95295C58.2205 5.69962 58.2638 5.43962 58.2638 5.17295C58.2638 4.89295 58.2138 4.62628 58.1138 4.37295C58.0205 4.11962 57.8838 3.89628 57.7038 3.70295C57.5238 3.50962 57.3172 3.35628 57.0838 3.24295C56.8505 3.12962 56.5972 3.07295 56.3238 3.07295C56.1505 3.07295 55.9705 3.10628 55.7838 3.17295C55.5972 3.23962 55.4172 3.33628 55.2438 3.46295C55.0772 3.58295 54.9372 3.71962 54.8238 3.87295C54.7105 4.02628 54.6405 4.18962 54.6138 4.36295V5.96295C54.7205 6.20962 54.8638 6.43295 55.0438 6.63295C55.2238 6.82628 55.4305 6.98295 55.6638 7.10295C55.9038 7.21628 56.1505 7.27295 56.4038 7.27295ZM59.6857 6.27295C59.6857 5.94628 59.779 5.66628 59.9657 5.43295C60.1524 5.19295 60.409 5.00962 60.7357 4.88295C61.069 4.74962 61.4524 4.68295 61.8857 4.68295C62.139 4.68295 62.4024 4.70295 62.6757 4.74295C62.949 4.78295 63.1924 4.84295 63.4057 4.92295V4.48295C63.4057 4.04295 63.2757 3.69295 63.0157 3.43295C62.7557 3.17295 62.3957 3.04295 61.9357 3.04295C61.6557 3.04295 61.379 3.09628 61.1057 3.20295C60.839 3.30295 60.559 3.45295 60.2657 3.65295L60.0057 3.17295C60.3457 2.93962 60.679 2.76628 61.0057 2.65295C61.3324 2.53295 61.6657 2.47295 62.0057 2.47295C62.6457 2.47295 63.1524 2.65628 63.5257 3.02295C63.899 3.38962 64.0857 3.89628 64.0857 4.54295V6.95295C64.0857 7.04628 64.1057 7.11628 64.1457 7.16295C64.1857 7.20295 64.249 7.22628 64.3357 7.23295V7.77295C64.2624 7.77962 64.199 7.78628 64.1457 7.79295C64.0924 7.79962 64.0524 7.79962 64.0257 7.79295C63.859 7.78628 63.7324 7.73295 63.6457 7.63295C63.559 7.53295 63.5124 7.42628 63.5057 7.31295L63.4957 6.93295C63.2624 7.23295 62.959 7.46628 62.5857 7.63295C62.2124 7.79295 61.8324 7.87295 61.4457 7.87295C61.1124 7.87295 60.809 7.80295 60.5357 7.66295C60.269 7.51628 60.059 7.32295 59.9057 7.08295C59.759 6.83628 59.6857 6.56628 59.6857 6.27295ZM63.1757 6.67295C63.249 6.57962 63.3057 6.48962 63.3457 6.40295C63.3857 6.31628 63.4057 6.23962 63.4057 6.17295V5.41295C63.179 5.32628 62.9424 5.25962 62.6957 5.21295C62.4557 5.16628 62.2124 5.14295 61.9657 5.14295C61.479 5.14295 61.0857 5.23962 60.7857 5.43295C60.4857 5.62628 60.3357 5.88962 60.3357 6.22295C60.3357 6.41628 60.3857 6.59962 60.4857 6.77295C60.5857 6.93962 60.7324 7.07962 60.9257 7.19295C61.119 7.29962 61.3457 7.35295 61.6057 7.35295C61.9324 7.35295 62.2357 7.28962 62.5157 7.16295C62.8024 7.03628 63.0224 6.87295 63.1757 6.67295ZM67.7538 5.18295C67.7538 4.68962 67.8538 4.23962 68.0538 3.83295C68.2604 3.41962 68.5438 3.08962 68.9038 2.84295C69.2638 2.59628 69.6738 2.47295 70.1338 2.47295C70.5671 2.47295 70.9538 2.58962 71.2938 2.82295C71.6404 3.04962 71.9104 3.32628 72.1038 3.65295V0.472949H72.7838V6.95295C72.7838 7.04628 72.8038 7.11628 72.8438 7.16295C72.8838 7.20295 72.9438 7.22628 73.0238 7.23295V7.77295C72.8904 7.79295 72.7871 7.79962 72.7138 7.79295C72.5738 7.78628 72.4504 7.72962 72.3438 7.62295C72.2371 7.51628 72.1838 7.39962 72.1838 7.27295V6.76295C71.9771 7.10295 71.6971 7.37295 71.3438 7.57295C70.9904 7.77295 70.6238 7.87295 70.2438 7.87295C69.8838 7.87295 69.5504 7.79962 69.2438 7.65295C68.9438 7.50628 68.6804 7.30628 68.4538 7.05295C68.2338 6.79962 68.0604 6.51295 67.9338 6.19295C67.8138 5.86628 67.7538 5.52962 67.7538 5.18295ZM72.1038 5.98295V4.37295C72.0171 4.13295 71.8771 3.91628 71.6838 3.72295C71.4904 3.52295 71.2704 3.36628 71.0238 3.25295C70.7838 3.13295 70.5438 3.07295 70.3038 3.07295C70.0238 3.07295 69.7704 3.13295 69.5438 3.25295C69.3171 3.36628 69.1204 3.52295 68.9538 3.72295C68.7938 3.92295 68.6704 4.14962 68.5838 4.40295C68.4971 4.65628 68.4538 4.91628 68.4538 5.18295C68.4538 5.46295 68.5004 5.72962 68.5938 5.98295C68.6938 6.23628 68.8338 6.46295 69.0138 6.66295C69.1938 6.85628 69.4004 7.00628 69.6338 7.11295C69.8671 7.21962 70.1204 7.27295 70.3938 7.27295C70.5671 7.27295 70.7471 7.23962 70.9338 7.17295C71.1204 7.10628 71.2971 7.01628 71.4638 6.90295C71.6371 6.78295 71.7804 6.64295 71.8938 6.48295C72.0071 6.32295 72.0771 6.15628 72.1038 5.98295ZM74.2745 5.62295V2.56295H74.9545V5.50295C74.9545 6.09628 75.0545 6.53962 75.2545 6.83295C75.4611 7.12628 75.7645 7.27295 76.1645 7.27295C76.4311 7.27295 76.6878 7.21628 76.9345 7.10295C77.1878 6.98295 77.4111 6.81628 77.6045 6.60295C77.7978 6.38295 77.9445 6.12962 78.0445 5.84295V2.56295H78.7245V6.95295C78.7245 7.04628 78.7445 7.11628 78.7845 7.16295C78.8245 7.20295 78.8845 7.22628 78.9645 7.23295V7.77295C78.8845 7.77962 78.8211 7.78295 78.7745 7.78295C78.7278 7.78962 78.6845 7.79295 78.6445 7.79295C78.5111 7.77962 78.3945 7.72628 78.2945 7.63295C78.2011 7.53962 78.1511 7.42628 78.1445 7.29295L78.1245 6.59295C77.8978 6.99295 77.5878 7.30628 77.1945 7.53295C76.8078 7.75962 76.3878 7.87295 75.9345 7.87295C75.3878 7.87295 74.9745 7.68295 74.6945 7.30295C74.4145 6.92295 74.2745 6.36295 74.2745 5.62295ZM82.862 3.16295C82.4086 3.17628 82.0086 3.30295 81.662 3.54295C81.322 3.78295 81.082 4.11295 80.942 4.53295V7.77295H80.262V2.56295H80.902V3.81295C81.082 3.44628 81.3186 3.14962 81.612 2.92295C81.912 2.69628 82.2286 2.56962 82.562 2.54295C82.6286 2.53628 82.6853 2.53295 82.732 2.53295C82.7853 2.53295 82.8286 2.53628 82.862 2.54295V3.16295ZM83.3283 6.27295C83.3283 5.94628 83.4216 5.66628 83.6083 5.43295C83.795 5.19295 84.0516 5.00962 84.3783 4.88295C84.7116 4.74962 85.095 4.68295 85.5283 4.68295C85.7816 4.68295 86.045 4.70295 86.3183 4.74295C86.5916 4.78295 86.835 4.84295 87.0483 4.92295V4.48295C87.0483 4.04295 86.9183 3.69295 86.6583 3.43295C86.3983 3.17295 86.0383 3.04295 85.5783 3.04295C85.2983 3.04295 85.0216 3.09628 84.7483 3.20295C84.4816 3.30295 84.2016 3.45295 83.9083 3.65295L83.6483 3.17295C83.9883 2.93962 84.3216 2.76628 84.6483 2.65295C84.975 2.53295 85.3083 2.47295 85.6483 2.47295C86.2883 2.47295 86.795 2.65628 87.1683 3.02295C87.5416 3.38962 87.7283 3.89628 87.7283 4.54295V6.95295C87.7283 7.04628 87.7483 7.11628 87.7883 7.16295C87.8283 7.20295 87.8916 7.22628 87.9783 7.23295V7.77295C87.905 7.77962 87.8416 7.78628 87.7883 7.79295C87.735 7.79962 87.695 7.79962 87.6683 7.79295C87.5016 7.78628 87.375 7.73295 87.2883 7.63295C87.2016 7.53295 87.155 7.42628 87.1483 7.31295L87.1383 6.93295C86.905 7.23295 86.6016 7.46628 86.2283 7.63295C85.855 7.79295 85.475 7.87295 85.0883 7.87295C84.755 7.87295 84.4516 7.80295 84.1783 7.66295C83.9116 7.51628 83.7016 7.32295 83.5483 7.08295C83.4016 6.83628 83.3283 6.56628 83.3283 6.27295ZM86.8183 6.67295C86.8916 6.57962 86.9483 6.48962 86.9883 6.40295C87.0283 6.31628 87.0483 6.23962 87.0483 6.17295V5.41295C86.8216 5.32628 86.585 5.25962 86.3383 5.21295C86.0983 5.16628 85.855 5.14295 85.6083 5.14295C85.1216 5.14295 84.7283 5.23962 84.4283 5.43295C84.1283 5.62628 83.9783 5.88962 83.9783 6.22295C83.9783 6.41628 84.0283 6.59962 84.1283 6.77295C84.2283 6.93962 84.375 7.07962 84.5683 7.19295C84.7616 7.29962 84.9883 7.35295 85.2483 7.35295C85.575 7.35295 85.8783 7.28962 86.1583 7.16295C86.445 7.03628 86.665 6.87295 86.8183 6.67295Z" fill="#E2E7E9"/>
<path d="M88.7126 31.4329C88.8491 31.6729 89.1544 31.7568 89.3944 31.6203C89.6344 31.4837 89.7183 31.1785 89.5818 30.9384L88.7126 31.4329ZM30.57 20.6135C30.308 20.5262 30.0248 20.6678 29.9375 20.9298L28.5145 25.1989C28.4272 25.4608 28.5688 25.744 28.8307 25.8313C29.0927 25.9186 29.3759 25.7771 29.4632 25.5151L30.7281 21.7203L34.5228 22.9853C34.7848 23.0726 35.068 22.931 35.1553 22.669C35.2426 22.4071 35.101 22.1239 34.8391 22.0366L30.57 20.6135ZM89.5818 30.9384C88.227 28.5565 86.449 26.9979 84.3485 26.0635C82.2576 25.1334 79.8764 24.8348 77.3263 24.9192C72.2488 25.0871 66.3436 26.7861 60.4797 28.239C54.5719 29.7028 48.6893 30.9232 43.5123 30.2403C38.386 29.5641 33.9369 27.0199 30.8591 20.8643L29.9647 21.3115C33.1979 27.7781 37.942 30.5142 43.3815 31.2317C48.7704 31.9425 54.8263 30.67 60.7202 29.2097C66.6581 27.7384 72.418 26.0821 77.3593 25.9186C79.8186 25.8373 82.0354 26.1291 83.9421 26.9772C85.8394 27.8212 87.4588 29.2287 88.7126 31.4329L89.5818 30.9384Z" fill="#7D298A"/>
</svg>
