<svg width="110" height="70" viewBox="0 0 110 70" fill="none" xmlns="http://www.w3.org/2000/svg">
<path d="M7.11506 67.6906V61.9106L4.54506 66.4006H4.10506L1.52506 61.9106V67.6906H0.825059V60.5906H1.54506L4.31506 65.4506L7.10506 60.5906H7.81506V67.6906H7.11506ZM8.98576 66.1906C8.98576 65.8639 9.0791 65.5839 9.26576 65.3506C9.45243 65.1106 9.7091 64.9272 10.0358 64.8006C10.3691 64.6672 10.7524 64.6006 11.1858 64.6006C11.4391 64.6006 11.7024 64.6206 11.9758 64.6606C12.2491 64.7006 12.4924 64.7606 12.7058 64.8406V64.4006C12.7058 63.9606 12.5758 63.6106 12.3158 63.3506C12.0558 63.0906 11.6958 62.9606 11.2358 62.9606C10.9558 62.9606 10.6791 63.0139 10.4058 63.1206C10.1391 63.2206 9.8591 63.3706 9.56576 63.5706L9.30576 63.0906C9.64576 62.8572 9.9791 62.6839 10.3058 62.5706C10.6324 62.4506 10.9658 62.3906 11.3058 62.3906C11.9458 62.3906 12.4524 62.5739 12.8258 62.9406C13.1991 63.3072 13.3858 63.8139 13.3858 64.4606V66.8706C13.3858 66.9639 13.4058 67.0339 13.4458 67.0806C13.4858 67.1206 13.5491 67.1439 13.6358 67.1506V67.6906C13.5624 67.6972 13.4991 67.7039 13.4458 67.7106C13.3924 67.7172 13.3524 67.7172 13.3258 67.7106C13.1591 67.7039 13.0324 67.6506 12.9458 67.5506C12.8591 67.4506 12.8124 67.3439 12.8058 67.2306L12.7958 66.8506C12.5624 67.1506 12.2591 67.3839 11.8858 67.5506C11.5124 67.7106 11.1324 67.7906 10.7458 67.7906C10.4124 67.7906 10.1091 67.7206 9.83576 67.5806C9.5691 67.4339 9.3591 67.2406 9.20576 67.0006C9.0591 66.7539 8.98576 66.4839 8.98576 66.1906ZM12.4758 66.5906C12.5491 66.4972 12.6058 66.4072 12.6458 66.3206C12.6858 66.2339 12.7058 66.1572 12.7058 66.0906V65.3306C12.4791 65.2439 12.2424 65.1772 11.9958 65.1306C11.7558 65.0839 11.5124 65.0606 11.2658 65.0606C10.7791 65.0606 10.3858 65.1572 10.0858 65.3506C9.78576 65.5439 9.63576 65.8072 9.63576 66.1406C9.63576 66.3339 9.68576 66.5172 9.78576 66.6906C9.88576 66.8572 10.0324 66.9972 10.2258 67.1106C10.4191 67.2172 10.6458 67.2706 10.9058 67.2706C11.2324 67.2706 11.5358 67.2072 11.8158 67.0806C12.1024 66.9539 12.3224 66.7906 12.4758 66.5906ZM17.455 63.0806C17.0016 63.0939 16.6016 63.2206 16.255 63.4606C15.915 63.7006 15.675 64.0306 15.535 64.4506V67.6906H14.855V62.4806H15.495V63.7306C15.675 63.3639 15.9116 63.0672 16.205 62.8406C16.505 62.6139 16.8216 62.4872 17.155 62.4606C17.2216 62.4539 17.2783 62.4506 17.325 62.4506C17.3783 62.4506 17.4216 62.4539 17.455 62.4606V63.0806ZM20.4548 67.7906C20.0748 67.7906 19.7248 67.7206 19.4048 67.5806C19.0915 67.4339 18.8148 67.2339 18.5748 66.9806C18.3415 66.7272 18.1582 66.4372 18.0248 66.1106C17.8982 65.7839 17.8348 65.4372 17.8348 65.0706C17.8348 64.5772 17.9448 64.1272 18.1648 63.7206C18.3848 63.3139 18.6915 62.9906 19.0848 62.7506C19.4782 62.5106 19.9315 62.3906 20.4448 62.3906C20.9315 62.3906 21.3615 62.5039 21.7348 62.7306C22.1082 62.9506 22.3848 63.2506 22.5648 63.6306L21.9048 63.8406C21.7582 63.5739 21.5515 63.3672 21.2848 63.2206C21.0248 63.0672 20.7348 62.9906 20.4148 62.9906C20.0682 62.9906 19.7515 63.0806 19.4648 63.2606C19.1782 63.4406 18.9482 63.6872 18.7748 64.0006C18.6082 64.3139 18.5248 64.6706 18.5248 65.0706C18.5248 65.4639 18.6115 65.8206 18.7848 66.1406C18.9582 66.4606 19.1882 66.7172 19.4748 66.9106C19.7615 67.0972 20.0782 67.1906 20.4248 67.1906C20.6515 67.1906 20.8682 67.1506 21.0748 67.0706C21.2882 66.9906 21.4715 66.8839 21.6248 66.7506C21.7848 66.6106 21.8915 66.4606 21.9448 66.3006L22.6148 66.5006C22.5215 66.7472 22.3648 66.9706 22.1448 67.1706C21.9315 67.3639 21.6782 67.5172 21.3848 67.6306C21.0982 67.7372 20.7882 67.7906 20.4548 67.7906ZM23.2631 66.1906C23.2631 65.8639 23.3564 65.5839 23.5431 65.3506C23.7298 65.1106 23.9864 64.9272 24.3131 64.8006C24.6464 64.6672 25.0298 64.6006 25.4631 64.6006C25.7164 64.6006 25.9798 64.6206 26.2531 64.6606C26.5264 64.7006 26.7698 64.7606 26.9831 64.8406V64.4006C26.9831 63.9606 26.8531 63.6106 26.5931 63.3506C26.3331 63.0906 25.9731 62.9606 25.5131 62.9606C25.2331 62.9606 24.9564 63.0139 24.6831 63.1206C24.4164 63.2206 24.1364 63.3706 23.8431 63.5706L23.5831 63.0906C23.9231 62.8572 24.2564 62.6839 24.5831 62.5706C24.9098 62.4506 25.2431 62.3906 25.5831 62.3906C26.2231 62.3906 26.7298 62.5739 27.1031 62.9406C27.4764 63.3072 27.6631 63.8139 27.6631 64.4606V66.8706C27.6631 66.9639 27.6831 67.0339 27.7231 67.0806C27.7631 67.1206 27.8264 67.1439 27.9131 67.1506V67.6906C27.8398 67.6972 27.7764 67.7039 27.7231 67.7106C27.6698 67.7172 27.6298 67.7172 27.6031 67.7106C27.4364 67.7039 27.3098 67.6506 27.2231 67.5506C27.1364 67.4506 27.0898 67.3439 27.0831 67.2306L27.0731 66.8506C26.8398 67.1506 26.5364 67.3839 26.1631 67.5506C25.7898 67.7106 25.4098 67.7906 25.0231 67.7906C24.6898 67.7906 24.3864 67.7206 24.1131 67.5806C23.8464 67.4339 23.6364 67.2406 23.4831 67.0006C23.3364 66.7539 23.2631 66.4839 23.2631 66.1906ZM26.7531 66.5906C26.8264 66.4972 26.8831 66.4072 26.9231 66.3206C26.9631 66.2339 26.9831 66.1572 26.9831 66.0906V65.3306C26.7564 65.2439 26.5198 65.1772 26.2731 65.1306C26.0331 65.0839 25.7898 65.0606 25.5431 65.0606C25.0564 65.0606 24.6631 65.1572 24.3631 65.3506C24.0631 65.5439 23.9131 65.8072 23.9131 66.1406C23.9131 66.3339 23.9631 66.5172 24.0631 66.6906C24.1631 66.8572 24.3098 66.9972 24.5031 67.1106C24.6964 67.2172 24.9231 67.2706 25.1831 67.2706C25.5098 67.2706 25.8131 67.2072 26.0931 67.0806C26.3798 66.9539 26.5998 66.7906 26.7531 66.5906ZM34.3412 67.7906C33.9078 67.7906 33.5178 67.6772 33.1712 67.4506C32.8312 67.2239 32.5612 66.9439 32.3612 66.6106V69.8206H31.6812V62.4806H32.2912V63.4906C32.4978 63.1639 32.7745 62.9006 33.1212 62.7006C33.4678 62.4939 33.8378 62.3906 34.2312 62.3906C34.5912 62.3906 34.9212 62.4672 35.2212 62.6206C35.5212 62.7672 35.7812 62.9672 36.0012 63.2206C36.2212 63.4739 36.3912 63.7639 36.5112 64.0906C36.6378 64.4106 36.7012 64.7439 36.7012 65.0906C36.7012 65.5772 36.6012 66.0272 36.4012 66.4406C36.2078 66.8472 35.9345 67.1739 35.5812 67.4206C35.2278 67.6672 34.8145 67.7906 34.3412 67.7906ZM34.1512 67.1906C34.4378 67.1906 34.6945 67.1339 34.9212 67.0206C35.1478 66.9006 35.3412 66.7406 35.5012 66.5406C35.6678 66.3406 35.7945 66.1172 35.8812 65.8706C35.9678 65.6172 36.0112 65.3572 36.0112 65.0906C36.0112 64.8106 35.9612 64.5439 35.8612 64.2906C35.7678 64.0372 35.6312 63.8139 35.4512 63.6206C35.2712 63.4272 35.0645 63.2739 34.8312 63.1606C34.5978 63.0472 34.3445 62.9906 34.0712 62.9906C33.8978 62.9906 33.7178 63.0239 33.5312 63.0906C33.3445 63.1572 33.1645 63.2539 32.9912 63.3806C32.8245 63.5006 32.6845 63.6372 32.5712 63.7906C32.4578 63.9439 32.3878 64.1072 32.3612 64.2806V65.8806C32.4678 66.1272 32.6112 66.3506 32.7912 66.5506C32.9712 66.7439 33.1778 66.9006 33.4112 67.0206C33.6512 67.1339 33.8978 67.1906 34.1512 67.1906ZM37.433 66.1906C37.433 65.8639 37.5264 65.5839 37.713 65.3506C37.8997 65.1106 38.1564 64.9272 38.483 64.8006C38.8164 64.6672 39.1997 64.6006 39.633 64.6006C39.8864 64.6006 40.1497 64.6206 40.423 64.6606C40.6964 64.7006 40.9397 64.7606 41.153 64.8406V64.4006C41.153 63.9606 41.023 63.6106 40.763 63.3506C40.503 63.0906 40.143 62.9606 39.683 62.9606C39.403 62.9606 39.1264 63.0139 38.853 63.1206C38.5864 63.2206 38.3064 63.3706 38.013 63.5706L37.753 63.0906C38.093 62.8572 38.4264 62.6839 38.753 62.5706C39.0797 62.4506 39.413 62.3906 39.753 62.3906C40.393 62.3906 40.8997 62.5739 41.273 62.9406C41.6464 63.3072 41.833 63.8139 41.833 64.4606V66.8706C41.833 66.9639 41.853 67.0339 41.893 67.0806C41.933 67.1206 41.9964 67.1439 42.083 67.1506V67.6906C42.0097 67.6972 41.9464 67.7039 41.893 67.7106C41.8397 67.7172 41.7997 67.7172 41.773 67.7106C41.6064 67.7039 41.4797 67.6506 41.393 67.5506C41.3064 67.4506 41.2597 67.3439 41.253 67.2306L41.243 66.8506C41.0097 67.1506 40.7064 67.3839 40.333 67.5506C39.9597 67.7106 39.5797 67.7906 39.193 67.7906C38.8597 67.7906 38.5564 67.7206 38.283 67.5806C38.0164 67.4339 37.8064 67.2406 37.653 67.0006C37.5064 66.7539 37.433 66.4839 37.433 66.1906ZM40.923 66.5906C40.9964 66.4972 41.053 66.4072 41.093 66.3206C41.133 66.2339 41.153 66.1572 41.153 66.0906V65.3306C40.9264 65.2439 40.6897 65.1772 40.443 65.1306C40.203 65.0839 39.9597 65.0606 39.713 65.0606C39.2264 65.0606 38.833 65.1572 38.533 65.3506C38.233 65.5439 38.083 65.8072 38.083 66.1406C38.083 66.3339 38.133 66.5172 38.233 66.6906C38.333 66.8572 38.4797 66.9972 38.673 67.1106C38.8664 67.2172 39.093 67.2706 39.353 67.2706C39.6797 67.2706 39.983 67.2072 40.263 67.0806C40.5497 66.9539 40.7697 66.7906 40.923 66.5906ZM39.973 61.4906L39.523 61.3206L40.113 60.3906H40.833L39.973 61.4906ZM45.3922 67.7606C45.0389 67.7606 44.7122 67.6872 44.4122 67.5406C44.1122 67.3939 43.8522 67.1972 43.6322 66.9506C43.4189 66.6972 43.2522 66.4106 43.1322 66.0906C43.0122 65.7706 42.9522 65.4406 42.9522 65.1006C42.9522 64.7339 43.0089 64.3906 43.1222 64.0706C43.2422 63.7439 43.4089 63.4539 43.6222 63.2006C43.8422 62.9472 44.0989 62.7506 44.3922 62.6106C44.6856 62.4639 45.0122 62.3906 45.3722 62.3906C45.8189 62.3906 46.2056 62.5039 46.5322 62.7306C46.8656 62.9572 47.1456 63.2372 47.3722 63.5706V62.4806H47.9822V67.7106C47.9822 68.1906 47.8656 68.5939 47.6322 68.9206C47.4056 69.2539 47.0956 69.5039 46.7022 69.6706C46.3156 69.8372 45.8922 69.9206 45.4322 69.9206C44.8389 69.9206 44.3589 69.8139 43.9922 69.6006C43.6256 69.3872 43.3256 69.1006 43.0922 68.7406L43.5122 68.4106C43.7189 68.7372 43.9922 68.9806 44.3322 69.1406C44.6789 69.3006 45.0456 69.3806 45.4322 69.3806C45.7722 69.3806 46.0822 69.3172 46.3622 69.1906C46.6489 69.0706 46.8756 68.8872 47.0422 68.6406C47.2156 68.3939 47.3022 68.0839 47.3022 67.7106V66.6806C47.1022 67.0072 46.8289 67.2706 46.4822 67.4706C46.1356 67.6639 45.7722 67.7606 45.3922 67.7606ZM45.5822 67.1906C45.7889 67.1906 45.9856 67.1539 46.1722 67.0806C46.3656 67.0072 46.5422 66.9106 46.7022 66.7906C46.8622 66.6639 46.9956 66.5239 47.1022 66.3706C47.2089 66.2172 47.2756 66.0606 47.3022 65.9006V64.2906C47.2022 64.0372 47.0589 63.8139 46.8722 63.6206C46.6856 63.4206 46.4722 63.2672 46.2322 63.1606C45.9989 63.0472 45.7556 62.9906 45.5022 62.9906C45.2089 62.9906 44.9456 63.0539 44.7122 63.1806C44.4856 63.3006 44.2922 63.4639 44.1322 63.6706C43.9789 63.8706 43.8589 64.0972 43.7722 64.3506C43.6856 64.6039 43.6422 64.8572 43.6422 65.1106C43.6422 65.3906 43.6922 65.6572 43.7922 65.9106C43.8922 66.1572 44.0289 66.3806 44.2022 66.5806C44.3822 66.7739 44.5889 66.9239 44.8222 67.0306C45.0622 67.1372 45.3156 67.1906 45.5822 67.1906ZM49.4839 67.6906V62.4806H50.1639V67.6906H49.4839ZM49.4839 61.3906V60.3906H50.1639V61.3906H49.4839ZM56.0416 67.6906H55.3616V64.7806C55.3616 64.1672 55.2716 63.7206 55.0916 63.4406C54.9116 63.1539 54.6283 63.0106 54.2416 63.0106C53.975 63.0106 53.7116 63.0772 53.4516 63.2106C53.1916 63.3372 52.9616 63.5139 52.7616 63.7406C52.5683 63.9606 52.4283 64.2139 52.3416 64.5006V67.6906H51.6616V62.4806H52.2816V63.6606C52.4216 63.4072 52.605 63.1872 52.8316 63.0006C53.0583 62.8072 53.315 62.6572 53.6016 62.5506C53.8883 62.4439 54.185 62.3906 54.4916 62.3906C54.7783 62.3906 55.0216 62.4439 55.2216 62.5506C55.4216 62.6572 55.5816 62.8106 55.7016 63.0106C55.8216 63.2039 55.9083 63.4406 55.9616 63.7206C56.015 63.9939 56.0416 64.3006 56.0416 64.6406V67.6906ZM57.0717 66.1906C57.0717 65.8639 57.165 65.5839 57.3517 65.3506C57.5384 65.1106 57.795 64.9272 58.1217 64.8006C58.455 64.6672 58.8384 64.6006 59.2717 64.6006C59.525 64.6006 59.7884 64.6206 60.0617 64.6606C60.335 64.7006 60.5784 64.7606 60.7917 64.8406V64.4006C60.7917 63.9606 60.6617 63.6106 60.4017 63.3506C60.1417 63.0906 59.7817 62.9606 59.3217 62.9606C59.0417 62.9606 58.765 63.0139 58.4917 63.1206C58.225 63.2206 57.945 63.3706 57.6517 63.5706L57.3917 63.0906C57.7317 62.8572 58.065 62.6839 58.3917 62.5706C58.7184 62.4506 59.0517 62.3906 59.3917 62.3906C60.0317 62.3906 60.5384 62.5739 60.9117 62.9406C61.285 63.3072 61.4717 63.8139 61.4717 64.4606V66.8706C61.4717 66.9639 61.4917 67.0339 61.5317 67.0806C61.5717 67.1206 61.635 67.1439 61.7217 67.1506V67.6906C61.6484 67.6972 61.585 67.7039 61.5317 67.7106C61.4784 67.7172 61.4384 67.7172 61.4117 67.7106C61.245 67.7039 61.1184 67.6506 61.0317 67.5506C60.945 67.4506 60.8984 67.3439 60.8917 67.2306L60.8817 66.8506C60.6484 67.1506 60.345 67.3839 59.9717 67.5506C59.5984 67.7106 59.2184 67.7906 58.8317 67.7906C58.4984 67.7906 58.195 67.7206 57.9217 67.5806C57.655 67.4339 57.445 67.2406 57.2917 67.0006C57.145 66.7539 57.0717 66.4839 57.0717 66.1906ZM60.5617 66.5906C60.635 66.4972 60.6917 66.4072 60.7317 66.3206C60.7717 66.2339 60.7917 66.1572 60.7917 66.0906V65.3306C60.565 65.2439 60.3284 65.1772 60.0817 65.1306C59.8417 65.0839 59.5984 65.0606 59.3517 65.0606C58.865 65.0606 58.4717 65.1572 58.1717 65.3506C57.8717 65.5439 57.7217 65.8072 57.7217 66.1406C57.7217 66.3339 57.7717 66.5172 57.8717 66.6906C57.9717 66.8572 58.1184 66.9972 58.3117 67.1106C58.505 67.2172 58.7317 67.2706 58.9917 67.2706C59.3184 67.2706 59.6217 67.2072 59.9017 67.0806C60.1884 66.9539 60.4084 66.7906 60.5617 66.5906ZM64.6509 67.7906C64.2243 67.7906 63.8276 67.7206 63.4609 67.5806C63.0943 67.4406 62.7776 67.2272 62.5109 66.9406L62.7909 66.4606C63.0843 66.7339 63.3776 66.9339 63.6709 67.0606C63.9709 67.1806 64.2876 67.2406 64.6209 67.2406C65.0276 67.2406 65.3576 67.1606 65.6109 67.0006C65.8643 66.8339 65.9909 66.5972 65.9909 66.2906C65.9909 66.0839 65.9276 65.9272 65.8009 65.8206C65.6809 65.7072 65.5043 65.6172 65.2709 65.5506C65.0443 65.4772 64.7709 65.4006 64.4509 65.3206C64.0909 65.2206 63.7876 65.1172 63.5409 65.0106C63.3009 64.8972 63.1176 64.7572 62.9909 64.5906C62.8709 64.4172 62.8109 64.1939 62.8109 63.9206C62.8109 63.5806 62.8943 63.3006 63.0609 63.0806C63.2343 62.8539 63.4676 62.6839 63.7609 62.5706C64.0609 62.4506 64.3943 62.3906 64.7609 62.3906C65.1609 62.3906 65.5143 62.4539 65.8209 62.5806C66.1276 62.7072 66.3776 62.8839 66.5709 63.1106L66.2409 63.5706C66.0543 63.3572 65.8309 63.2006 65.5709 63.1006C65.3176 62.9939 65.0343 62.9406 64.7209 62.9406C64.5076 62.9406 64.3043 62.9706 64.1109 63.0306C63.9176 63.0839 63.7576 63.1772 63.6309 63.3106C63.5109 63.4372 63.4509 63.6139 63.4509 63.8406C63.4509 64.0272 63.4976 64.1739 63.5909 64.2806C63.6843 64.3806 63.8243 64.4672 64.0109 64.5406C64.1976 64.6072 64.4276 64.6806 64.7009 64.7606C65.0943 64.8672 65.4376 64.9772 65.7309 65.0906C66.0243 65.1972 66.2509 65.3372 66.4109 65.5106C66.5709 65.6839 66.6509 65.9272 66.6509 66.2406C66.6509 66.7272 66.4676 67.1072 66.1009 67.3806C65.7343 67.6539 65.2509 67.7906 64.6509 67.7906ZM72.8237 67.4406C72.7704 67.4606 72.6871 67.4972 72.5737 67.5506C72.4604 67.6039 72.3237 67.6506 72.1637 67.6906C72.0037 67.7306 71.8304 67.7506 71.6437 67.7506C71.4504 67.7506 71.2671 67.7139 71.0937 67.6406C70.9271 67.5672 70.7937 67.4572 70.6937 67.3106C70.5937 67.1572 70.5437 66.9706 70.5437 66.7506V63.0206H69.8237V62.4806H70.5437V60.7206H71.2237V62.4806H72.4237V63.0206H71.2237V66.5606C71.2371 66.7472 71.3037 66.8872 71.4237 66.9806C71.5504 67.0739 71.6937 67.1206 71.8537 67.1206C72.0404 67.1206 72.2104 67.0906 72.3637 67.0306C72.5171 66.9639 72.6104 66.9172 72.6437 66.8906L72.8237 67.4406ZM75.8354 67.7906C75.4621 67.7906 75.1154 67.7206 74.7954 67.5806C74.4754 67.4339 74.1988 67.2372 73.9654 66.9906C73.7321 66.7372 73.5488 66.4472 73.4154 66.1206C73.2888 65.7939 73.2254 65.4439 73.2254 65.0706C73.2254 64.5839 73.3354 64.1372 73.5554 63.7306C73.7821 63.3239 74.0921 63.0006 74.4854 62.7606C74.8788 62.5139 75.3254 62.3906 75.8254 62.3906C76.3388 62.3906 76.7854 62.5139 77.1654 62.7606C77.5521 63.0072 77.8554 63.3339 78.0754 63.7406C78.2954 64.1406 78.4054 64.5806 78.4054 65.0606C78.4054 65.1139 78.4054 65.1672 78.4054 65.2206C78.4054 65.2672 78.4021 65.3039 78.3954 65.3306H73.9354C73.9688 65.7039 74.0721 66.0372 74.2454 66.3306C74.4254 66.6172 74.6554 66.8472 74.9354 67.0206C75.2221 67.1872 75.5321 67.2706 75.8654 67.2706C76.2054 67.2706 76.5254 67.1839 76.8254 67.0106C77.1321 66.8372 77.3454 66.6106 77.4654 66.3306L78.0554 66.4906C77.9488 66.7372 77.7854 66.9606 77.5654 67.1606C77.3454 67.3606 77.0854 67.5172 76.7854 67.6306C76.4921 67.7372 76.1754 67.7906 75.8354 67.7906ZM73.9154 64.8406H77.7654C77.7388 64.4606 77.6354 64.1272 77.4554 63.8406C77.2821 63.5539 77.0521 63.3306 76.7654 63.1706C76.4854 63.0039 76.1754 62.9206 75.8354 62.9206C75.4954 62.9206 75.1854 63.0039 74.9054 63.1706C74.6254 63.3306 74.3954 63.5572 74.2154 63.8506C74.0421 64.1372 73.9421 64.4672 73.9154 64.8406ZM87.2046 67.6906H86.5246V64.7806C86.5246 64.1739 86.4279 63.7272 86.2346 63.4406C86.0413 63.1539 85.7546 63.0106 85.3746 63.0106C84.9813 63.0106 84.6279 63.1506 84.3146 63.4306C84.0079 63.7106 83.7913 64.0706 83.6646 64.5106V67.6906H82.9846V64.7806C82.9846 64.1672 82.8913 63.7206 82.7046 63.4406C82.5179 63.1539 82.2313 63.0106 81.8446 63.0106C81.4579 63.0106 81.1079 63.1472 80.7946 63.4206C80.4813 63.6939 80.2613 64.0539 80.1346 64.5006V67.6906H79.4546V62.4806H80.0746V63.6606C80.2946 63.2539 80.5746 62.9406 80.9146 62.7206C81.2613 62.5006 81.6446 62.3906 82.0646 62.3906C82.4979 62.3906 82.8479 62.5139 83.1146 62.7606C83.3813 63.0072 83.5446 63.3306 83.6046 63.7306C83.8446 63.2906 84.1313 62.9572 84.4646 62.7306C84.8046 62.5039 85.1879 62.3906 85.6146 62.3906C85.9079 62.3906 86.1546 62.4439 86.3546 62.5506C86.5613 62.6572 86.7246 62.8106 86.8446 63.0106C86.9713 63.2039 87.0613 63.4406 87.1146 63.7206C87.1746 63.9939 87.2046 64.3006 87.2046 64.6406V67.6906ZM88.224 66.1906C88.224 65.8639 88.3174 65.5839 88.504 65.3506C88.6907 65.1106 88.9474 64.9272 89.274 64.8006C89.6074 64.6672 89.9907 64.6006 90.424 64.6006C90.6774 64.6006 90.9407 64.6206 91.214 64.6606C91.4874 64.7006 91.7307 64.7606 91.944 64.8406V64.4006C91.944 63.9606 91.814 63.6106 91.554 63.3506C91.294 63.0906 90.934 62.9606 90.474 62.9606C90.194 62.9606 89.9174 63.0139 89.644 63.1206C89.3774 63.2206 89.0974 63.3706 88.804 63.5706L88.544 63.0906C88.884 62.8572 89.2174 62.6839 89.544 62.5706C89.8707 62.4506 90.204 62.3906 90.544 62.3906C91.184 62.3906 91.6907 62.5739 92.064 62.9406C92.4374 63.3072 92.624 63.8139 92.624 64.4606V66.8706C92.624 66.9639 92.644 67.0339 92.684 67.0806C92.724 67.1206 92.7874 67.1439 92.874 67.1506V67.6906C92.8007 67.6972 92.7374 67.7039 92.684 67.7106C92.6307 67.7172 92.5907 67.7172 92.564 67.7106C92.3974 67.7039 92.2707 67.6506 92.184 67.5506C92.0974 67.4506 92.0507 67.3439 92.044 67.2306L92.034 66.8506C91.8007 67.1506 91.4974 67.3839 91.124 67.5506C90.7507 67.7106 90.3707 67.7906 89.984 67.7906C89.6507 67.7906 89.3474 67.7206 89.074 67.5806C88.8074 67.4339 88.5974 67.2406 88.444 67.0006C88.2974 66.7539 88.224 66.4839 88.224 66.1906ZM91.714 66.5906C91.7874 66.4972 91.844 66.4072 91.884 66.3206C91.924 66.2339 91.944 66.1572 91.944 66.0906V65.3306C91.7174 65.2439 91.4807 65.1772 91.234 65.1306C90.994 65.0839 90.7507 65.0606 90.504 65.0606C90.0174 65.0606 89.624 65.1572 89.324 65.3506C89.024 65.5439 88.874 65.8072 88.874 66.1406C88.874 66.3339 88.924 66.5172 89.024 66.6906C89.124 66.8572 89.2707 66.9972 89.464 67.1106C89.6574 67.2172 89.884 67.2706 90.144 67.2706C90.4707 67.2706 90.774 67.2072 91.054 67.0806C91.3407 66.9539 91.5607 66.7906 91.714 66.5906ZM90.764 61.4906L90.314 61.3206L90.904 60.3906H91.624L90.764 61.4906ZM96.5542 67.4406C96.5009 67.4606 96.4175 67.4972 96.3042 67.5506C96.1909 67.6039 96.0542 67.6506 95.8942 67.6906C95.7342 67.7306 95.5609 67.7506 95.3742 67.7506C95.1809 67.7506 94.9975 67.7139 94.8242 67.6406C94.6575 67.5672 94.5242 67.4572 94.4242 67.3106C94.3242 67.1572 94.2742 66.9706 94.2742 66.7506V63.0206H93.5542V62.4806H94.2742V60.7206H94.9542V62.4806H96.1542V63.0206H94.9542V66.5606C94.9675 66.7472 95.0342 66.8872 95.1542 66.9806C95.2809 67.0739 95.4242 67.1206 95.5842 67.1206C95.7709 67.1206 95.9409 67.0906 96.0942 67.0306C96.2475 66.9639 96.3409 66.9172 96.3742 66.8906L96.5542 67.4406ZM97.4038 67.6906V62.4806H98.0838V67.6906H97.4038ZM97.4038 61.3906V60.3906H98.0838V61.3906H97.4038ZM101.842 67.7906C101.462 67.7906 101.112 67.7206 100.792 67.5806C100.478 67.4339 100.202 67.2339 99.9615 66.9806C99.7282 66.7272 99.5449 66.4372 99.4115 66.1106C99.2849 65.7839 99.2215 65.4372 99.2215 65.0706C99.2215 64.5772 99.3315 64.1272 99.5515 63.7206C99.7715 63.3139 100.078 62.9906 100.472 62.7506C100.865 62.5106 101.318 62.3906 101.832 62.3906C102.318 62.3906 102.748 62.5039 103.122 62.7306C103.495 62.9506 103.772 63.2506 103.952 63.6306L103.292 63.8406C103.145 63.5739 102.938 63.3672 102.672 63.2206C102.412 63.0672 102.122 62.9906 101.802 62.9906C101.455 62.9906 101.138 63.0806 100.852 63.2606C100.565 63.4406 100.335 63.6872 100.162 64.0006C99.9949 64.3139 99.9115 64.6706 99.9115 65.0706C99.9115 65.4639 99.9982 65.8206 100.172 66.1406C100.345 66.4606 100.575 66.7172 100.862 66.9106C101.148 67.0972 101.465 67.1906 101.812 67.1906C102.038 67.1906 102.255 67.1506 102.462 67.0706C102.675 66.9906 102.858 66.8839 103.012 66.7506C103.172 66.6106 103.278 66.4606 103.332 66.3006L104.002 66.5006C103.908 66.7472 103.752 66.9706 103.532 67.1706C103.318 67.3639 103.065 67.5172 102.772 67.6306C102.485 67.7372 102.175 67.7906 101.842 67.7906ZM107.241 67.7906C106.868 67.7906 106.521 67.7206 106.201 67.5806C105.888 67.4339 105.614 67.2372 105.381 66.9906C105.154 66.7372 104.978 66.4506 104.851 66.1306C104.724 65.8039 104.661 65.4606 104.661 65.1006C104.661 64.7272 104.724 64.3806 104.851 64.0606C104.978 63.7339 105.158 63.4472 105.391 63.2006C105.624 62.9472 105.898 62.7506 106.211 62.6106C106.531 62.4639 106.878 62.3906 107.251 62.3906C107.624 62.3906 107.968 62.4639 108.281 62.6106C108.594 62.7506 108.868 62.9472 109.101 63.2006C109.334 63.4472 109.514 63.7339 109.641 64.0606C109.768 64.3806 109.831 64.7272 109.831 65.1006C109.831 65.4606 109.768 65.8039 109.641 66.1306C109.514 66.4506 109.334 66.7372 109.101 66.9906C108.874 67.2372 108.601 67.4339 108.281 67.5806C107.968 67.7206 107.621 67.7906 107.241 67.7906ZM105.351 65.1106C105.351 65.4972 105.434 65.8506 105.601 66.1706C105.774 66.4839 106.004 66.7339 106.291 66.9206C106.578 67.1006 106.894 67.1906 107.241 67.1906C107.588 67.1906 107.904 67.0972 108.191 66.9106C108.478 66.7239 108.708 66.4706 108.881 66.1506C109.054 65.8239 109.141 65.4706 109.141 65.0906C109.141 64.7039 109.054 64.3506 108.881 64.0306C108.708 63.7106 108.478 63.4572 108.191 63.2706C107.904 63.0839 107.588 62.9906 107.241 62.9906C106.894 62.9906 106.578 63.0872 106.291 63.2806C106.011 63.4739 105.784 63.7306 105.611 64.0506C105.438 64.3639 105.351 64.7172 105.351 65.1106Z" fill="#E2E7E9"/>
<path d="M91.3581 0.388876C91.1275 0.236946 90.8174 0.300712 90.6655 0.531302C90.5136 0.761892 90.5773 1.07199 90.8079 1.22392L91.3581 0.388876ZM51.3793 52.1822C51.5904 52.3603 51.9058 52.3336 52.0839 52.1226L54.9861 48.6835C55.1642 48.4725 55.1375 48.157 54.9265 47.9789C54.7154 47.8008 54.4 47.8275 54.2219 48.0386L51.6421 51.0955L48.5852 48.5158C48.3742 48.3377 48.0587 48.3644 47.8806 48.5754C47.7025 48.7865 47.7292 49.1019 47.9403 49.28L51.3793 52.1822ZM90.8079 1.22392C95.2933 4.17925 97.934 6.65291 99.1913 8.76197C99.8151 9.80838 100.088 10.7472 100.092 11.6009C100.096 12.4515 99.8345 13.2567 99.3258 14.0398C98.293 15.6294 96.2644 17.0947 93.5075 18.5395C90.7649 19.9769 87.3782 21.3563 83.7046 22.809C76.3847 25.7034 67.937 28.8811 61.4991 33.3393C55.0462 37.8079 50.509 43.6376 51.2036 51.8423L52.2 51.7579C51.5482 44.0587 55.7624 38.5283 62.0684 34.1614C68.3895 29.7841 76.7083 26.6507 84.0723 23.7389C87.7405 22.2884 91.1751 20.8909 93.9717 19.4252C96.7542 17.967 98.9829 16.403 100.164 14.5846C100.763 13.6636 101.097 12.6702 101.092 11.5959C101.086 10.5247 100.743 9.41239 100.05 8.24992C98.674 5.94121 95.8766 3.36598 91.3581 0.388876L90.8079 1.22392Z" fill="#7D298A"/>
</svg>
