<svg width="78" height="64" viewBox="0 0 78 64" fill="none" xmlns="http://www.w3.org/2000/svg">
<path d="M5.63479 5.53084C5.63479 5.88417 5.54479 6.20084 5.36479 6.48084C5.18479 6.75417 4.94145 6.97084 4.63479 7.13084C4.33479 7.28417 4.00479 7.36084 3.64479 7.36084H0.294785V0.260839H3.71479C4.04812 0.260839 4.33479 0.350839 4.57479 0.53084C4.82145 0.704173 5.00812 0.93084 5.13479 1.21084C5.26812 1.48417 5.33479 1.77084 5.33479 2.07084C5.33479 2.42417 5.24479 2.75084 5.06479 3.05084C4.88479 3.35084 4.63479 3.57417 4.31479 3.72084C4.72145 3.84084 5.04145 4.06417 5.27479 4.39084C5.51479 4.71751 5.63479 5.09751 5.63479 5.53084ZM4.93479 5.41084C4.93479 5.17084 4.88145 4.95084 4.77479 4.75084C4.66812 4.54417 4.52145 4.37751 4.33479 4.25084C4.15479 4.12417 3.94812 4.06084 3.71479 4.06084H0.994785V6.75084H3.64479C3.88479 6.75084 4.10145 6.68751 4.29479 6.56084C4.48812 6.43417 4.64145 6.27084 4.75479 6.07084C4.87479 5.86417 4.93479 5.64417 4.93479 5.41084ZM0.994785 0.870839V3.49084H3.43479C3.66812 3.49084 3.87479 3.43084 4.05479 3.31084C4.23479 3.18417 4.37812 3.02084 4.48479 2.82084C4.59145 2.62084 4.64479 2.40751 4.64479 2.18084C4.64479 1.94084 4.59479 1.72417 4.49479 1.53084C4.39479 1.33084 4.25812 1.17084 4.08479 1.05084C3.91145 0.930839 3.71479 0.870839 3.49479 0.870839H0.994785ZM9.41494 2.75084C8.96161 2.76417 8.56161 2.89084 8.21494 3.13084C7.87494 3.37084 7.63494 3.70084 7.49494 4.12084V7.36084H6.81494V2.15084H7.45494V3.40084C7.63494 3.03417 7.87161 2.73751 8.16494 2.51084C8.46494 2.28417 8.78161 2.15751 9.11494 2.13084C9.18161 2.12417 9.23828 2.12084 9.28494 2.12084C9.33827 2.12084 9.38161 2.12417 9.41494 2.13084V2.75084ZM12.3748 7.46084C12.0015 7.46084 11.6548 7.39084 11.3348 7.25084C11.0215 7.10417 10.7481 6.90751 10.5148 6.66084C10.2881 6.40751 10.1115 6.12084 9.98479 5.80084C9.85812 5.47417 9.79479 5.13084 9.79479 4.77084C9.79479 4.39751 9.85812 4.05084 9.98479 3.73084C10.1115 3.40417 10.2915 3.11751 10.5248 2.87084C10.7581 2.61751 11.0315 2.42084 11.3448 2.28084C11.6648 2.13417 12.0115 2.06084 12.3848 2.06084C12.7581 2.06084 13.1015 2.13417 13.4148 2.28084C13.7281 2.42084 14.0015 2.61751 14.2348 2.87084C14.4681 3.11751 14.6481 3.40417 14.7748 3.73084C14.9015 4.05084 14.9648 4.39751 14.9648 4.77084C14.9648 5.13084 14.9015 5.47417 14.7748 5.80084C14.6481 6.12084 14.4681 6.40751 14.2348 6.66084C14.0081 6.90751 13.7348 7.10417 13.4148 7.25084C13.1015 7.39084 12.7548 7.46084 12.3748 7.46084ZM10.4848 4.78084C10.4848 5.16751 10.5681 5.52084 10.7348 5.84084C10.9081 6.15417 11.1381 6.40417 11.4248 6.59084C11.7115 6.77084 12.0281 6.86084 12.3748 6.86084C12.7215 6.86084 13.0381 6.76751 13.3248 6.58084C13.6115 6.39417 13.8415 6.14084 14.0148 5.82084C14.1881 5.49417 14.2748 5.14084 14.2748 4.76084C14.2748 4.37417 14.1881 4.02084 14.0148 3.70084C13.8415 3.38084 13.6115 3.12751 13.3248 2.94084C13.0381 2.75417 12.7215 2.66084 12.3748 2.66084C12.0281 2.66084 11.7115 2.75751 11.4248 2.95084C11.1448 3.14417 10.9181 3.40084 10.7448 3.72084C10.5715 4.03417 10.4848 4.38751 10.4848 4.78084ZM18.3621 7.46084C17.9821 7.46084 17.6321 7.39084 17.3121 7.25084C16.9987 7.10417 16.7221 6.90417 16.4821 6.65084C16.2487 6.39751 16.0654 6.10751 15.9321 5.78084C15.8054 5.45417 15.7421 5.10751 15.7421 4.74084C15.7421 4.24751 15.8521 3.79751 16.0721 3.39084C16.2921 2.98417 16.5987 2.66084 16.9921 2.42084C17.3854 2.18084 17.8387 2.06084 18.3521 2.06084C18.8387 2.06084 19.2687 2.17417 19.6421 2.40084C20.0154 2.62084 20.2921 2.92084 20.4721 3.30084L19.8121 3.51084C19.6654 3.24417 19.4587 3.03751 19.1921 2.89084C18.9321 2.73751 18.6421 2.66084 18.3221 2.66084C17.9754 2.66084 17.6587 2.75084 17.3721 2.93084C17.0854 3.11084 16.8554 3.35751 16.6821 3.67084C16.5154 3.98417 16.4321 4.34084 16.4321 4.74084C16.4321 5.13417 16.5187 5.49084 16.6921 5.81084C16.8654 6.13084 17.0954 6.38751 17.3821 6.58084C17.6687 6.76751 17.9854 6.86084 18.3321 6.86084C18.5587 6.86084 18.7754 6.82084 18.9821 6.74084C19.1954 6.66084 19.3787 6.55417 19.5321 6.42084C19.6921 6.28084 19.7987 6.13084 19.8521 5.97084L20.5221 6.17084C20.4287 6.41751 20.2721 6.64084 20.0521 6.84084C19.8387 7.03417 19.5854 7.18751 19.2921 7.30084C19.0054 7.40751 18.6954 7.46084 18.3621 7.46084ZM25.9703 7.36084H25.2903V4.45084C25.2903 3.86417 25.187 3.42417 24.9803 3.13084C24.7737 2.83084 24.477 2.68084 24.0903 2.68084C23.837 2.68084 23.5837 2.74751 23.3303 2.88084C23.0837 3.00751 22.8637 3.18417 22.6703 3.41084C22.4837 3.63084 22.3503 3.88417 22.2703 4.17084V7.36084H21.5903V0.0608397H22.2703V3.33084C22.477 2.94417 22.7637 2.63751 23.1303 2.41084C23.5037 2.17751 23.9003 2.06084 24.3203 2.06084C24.6203 2.06084 24.8737 2.11417 25.0803 2.22084C25.2937 2.32751 25.4637 2.48417 25.5903 2.69084C25.7237 2.89084 25.8203 3.12751 25.8803 3.40084C25.9403 3.66751 25.9703 3.97084 25.9703 4.31084V7.36084ZM29.6704 7.46084C29.2971 7.46084 28.9504 7.39084 28.6304 7.25084C28.3104 7.10417 28.0337 6.90751 27.8004 6.66084C27.5671 6.40751 27.3837 6.11751 27.2504 5.79084C27.1237 5.46417 27.0604 5.11417 27.0604 4.74084C27.0604 4.25417 27.1704 3.80751 27.3904 3.40084C27.6171 2.99417 27.9271 2.67084 28.3204 2.43084C28.7137 2.18417 29.1604 2.06084 29.6604 2.06084C30.1737 2.06084 30.6204 2.18417 31.0004 2.43084C31.3871 2.67751 31.6904 3.00417 31.9104 3.41084C32.1304 3.81084 32.2404 4.25084 32.2404 4.73084C32.2404 4.78417 32.2404 4.83751 32.2404 4.89084C32.2404 4.93751 32.2371 4.97417 32.2304 5.00084H27.7704C27.8037 5.37417 27.9071 5.70751 28.0804 6.00084C28.2604 6.28751 28.4904 6.51751 28.7704 6.69084C29.0571 6.85751 29.3671 6.94084 29.7004 6.94084C30.0404 6.94084 30.3604 6.85417 30.6604 6.68084C30.9671 6.50751 31.1804 6.28084 31.3004 6.00084L31.8904 6.16084C31.7837 6.40751 31.6204 6.63084 31.4004 6.83084C31.1804 7.03084 30.9204 7.18751 30.6204 7.30084C30.3271 7.40751 30.0104 7.46084 29.6704 7.46084ZM27.7504 4.51084H31.6004C31.5737 4.13084 31.4704 3.79751 31.2904 3.51084C31.1171 3.22417 30.8871 3.00084 30.6004 2.84084C30.3204 2.67417 30.0104 2.59084 29.6704 2.59084C29.3304 2.59084 29.0204 2.67417 28.7404 2.84084C28.4604 3.00084 28.2304 3.22751 28.0504 3.52084C27.8771 3.80751 27.7771 4.13751 27.7504 4.51084ZM38.0884 7.46084C37.715 7.46084 37.3684 7.39084 37.0484 7.25084C36.7284 7.10417 36.4517 6.90751 36.2184 6.66084C35.985 6.40751 35.8017 6.11751 35.6684 5.79084C35.5417 5.46417 35.4784 5.11417 35.4784 4.74084C35.4784 4.25417 35.5884 3.80751 35.8084 3.40084C36.035 2.99417 36.345 2.67084 36.7384 2.43084C37.1317 2.18417 37.5784 2.06084 38.0784 2.06084C38.5917 2.06084 39.0384 2.18417 39.4184 2.43084C39.805 2.67751 40.1084 3.00417 40.3284 3.41084C40.5484 3.81084 40.6584 4.25084 40.6584 4.73084C40.6584 4.78417 40.6584 4.83751 40.6584 4.89084C40.6584 4.93751 40.655 4.97417 40.6484 5.00084H36.1884C36.2217 5.37417 36.325 5.70751 36.4984 6.00084C36.6784 6.28751 36.9084 6.51751 37.1884 6.69084C37.475 6.85751 37.785 6.94084 38.1184 6.94084C38.4584 6.94084 38.7784 6.85417 39.0784 6.68084C39.385 6.50751 39.5984 6.28084 39.7184 6.00084L40.3084 6.16084C40.2017 6.40751 40.0384 6.63084 39.8184 6.83084C39.5984 7.03084 39.3384 7.18751 39.0384 7.30084C38.745 7.40751 38.4284 7.46084 38.0884 7.46084ZM36.1684 4.51084H40.0184C39.9917 4.13084 39.8884 3.79751 39.7084 3.51084C39.535 3.22417 39.305 3.00084 39.0184 2.84084C38.7384 2.67417 38.4284 2.59084 38.0884 2.59084C37.7484 2.59084 37.4384 2.67417 37.1584 2.84084C36.8784 3.00084 36.6484 3.22751 36.4684 3.52084C36.295 3.80751 36.195 4.13751 36.1684 4.51084ZM41.6722 2.15084L43.2022 4.19084L43.2822 4.34084L43.3622 4.19084L44.8822 2.15084H45.6522L43.6722 4.77084L45.6522 7.36084H44.8822L43.3622 5.33084L43.2822 5.19084L43.2022 5.33084L41.6822 7.36084H40.9122L42.8822 4.77084L40.9122 2.15084H41.6722ZM48.5769 7.46084C48.1969 7.46084 47.8469 7.39084 47.5269 7.25084C47.2136 7.10417 46.9369 6.90417 46.6969 6.65084C46.4636 6.39751 46.2802 6.10751 46.1469 5.78084C46.0202 5.45417 45.9569 5.10751 45.9569 4.74084C45.9569 4.24751 46.0669 3.79751 46.2869 3.39084C46.5069 2.98417 46.8136 2.66084 47.2069 2.42084C47.6002 2.18084 48.0536 2.06084 48.5669 2.06084C49.0536 2.06084 49.4836 2.17417 49.8569 2.40084C50.2302 2.62084 50.5069 2.92084 50.6869 3.30084L50.0269 3.51084C49.8802 3.24417 49.6736 3.03751 49.4069 2.89084C49.1469 2.73751 48.8569 2.66084 48.5369 2.66084C48.1902 2.66084 47.8736 2.75084 47.5869 2.93084C47.3002 3.11084 47.0702 3.35751 46.8969 3.67084C46.7302 3.98417 46.6469 4.34084 46.6469 4.74084C46.6469 5.13417 46.7336 5.49084 46.9069 5.81084C47.0802 6.13084 47.3102 6.38751 47.5969 6.58084C47.8836 6.76751 48.2002 6.86084 48.5469 6.86084C48.7736 6.86084 48.9902 6.82084 49.1969 6.74084C49.4102 6.66084 49.5936 6.55417 49.7469 6.42084C49.9069 6.28084 50.0136 6.13084 50.0669 5.97084L50.7369 6.17084C50.6436 6.41751 50.4869 6.64084 50.2669 6.84084C50.0536 7.03417 49.8002 7.18751 49.5069 7.30084C49.2202 7.40751 48.9102 7.46084 48.5769 7.46084ZM51.8352 0.0608397H52.5152V6.18084C52.5152 6.44084 52.5618 6.61084 52.6552 6.69084C52.7485 6.77084 52.8618 6.81084 52.9952 6.81084C53.1152 6.81084 53.2352 6.79751 53.3552 6.77084C53.4752 6.74417 53.5785 6.71751 53.6652 6.69084L53.7852 7.24084C53.6585 7.29417 53.5018 7.33751 53.3152 7.37084C53.1352 7.40417 52.9785 7.42084 52.8452 7.42084C52.5385 7.42084 52.2918 7.33084 52.1052 7.15084C51.9252 6.97084 51.8352 6.72417 51.8352 6.41084V0.0608397ZM54.4798 5.21084V2.15084H55.1598V5.09084C55.1598 5.68417 55.2598 6.12751 55.4598 6.42084C55.6665 6.71417 55.9698 6.86084 56.3698 6.86084C56.6365 6.86084 56.8931 6.80417 57.1398 6.69084C57.3931 6.57084 57.6165 6.40417 57.8098 6.19084C58.0031 5.97084 58.1498 5.71751 58.2498 5.43084V2.15084H58.9298V6.54084C58.9298 6.63417 58.9498 6.70417 58.9898 6.75084C59.0298 6.79084 59.0898 6.81417 59.1698 6.82084V7.36084C59.0898 7.36751 59.0265 7.37084 58.9798 7.37084C58.9331 7.37751 58.8898 7.38084 58.8498 7.38084C58.7165 7.36751 58.5998 7.31417 58.4998 7.22084C58.4065 7.12751 58.3565 7.01417 58.3498 6.88084L58.3298 6.18084C58.1031 6.58084 57.7931 6.89417 57.3998 7.12084C57.0131 7.34751 56.5931 7.46084 56.1398 7.46084C55.5931 7.46084 55.1798 7.27084 54.8998 6.89084C54.6198 6.51084 54.4798 5.95084 54.4798 5.21084ZM62.1773 7.46084C61.7506 7.46084 61.354 7.39084 60.9873 7.25084C60.6206 7.11084 60.304 6.89751 60.0373 6.61084L60.3173 6.13084C60.6106 6.40417 60.904 6.60417 61.1973 6.73084C61.4973 6.85084 61.814 6.91084 62.1473 6.91084C62.554 6.91084 62.884 6.83084 63.1373 6.67084C63.3906 6.50417 63.5173 6.26751 63.5173 5.96084C63.5173 5.75417 63.454 5.59751 63.3273 5.49084C63.2073 5.37751 63.0306 5.28751 62.7973 5.22084C62.5706 5.14751 62.2973 5.07084 61.9773 4.99084C61.6173 4.89084 61.314 4.78751 61.0673 4.68084C60.8273 4.56751 60.644 4.42751 60.5173 4.26084C60.3973 4.08751 60.3373 3.86417 60.3373 3.59084C60.3373 3.25084 60.4206 2.97084 60.5873 2.75084C60.7606 2.52417 60.994 2.35417 61.2873 2.24084C61.5873 2.12084 61.9206 2.06084 62.2873 2.06084C62.6873 2.06084 63.0406 2.12417 63.3473 2.25084C63.654 2.37751 63.904 2.55417 64.0973 2.78084L63.7673 3.24084C63.5806 3.02751 63.3573 2.87084 63.0973 2.77084C62.844 2.66417 62.5606 2.61084 62.2473 2.61084C62.034 2.61084 61.8306 2.64084 61.6373 2.70084C61.444 2.75417 61.284 2.84751 61.1573 2.98084C61.0373 3.10751 60.9773 3.28417 60.9773 3.51084C60.9773 3.69751 61.024 3.84417 61.1173 3.95084C61.2106 4.05084 61.3506 4.13751 61.5373 4.21084C61.724 4.27751 61.954 4.35084 62.2273 4.43084C62.6206 4.53751 62.964 4.64751 63.2573 4.76084C63.5506 4.86751 63.7773 5.00751 63.9373 5.18084C64.0973 5.35417 64.1773 5.59751 64.1773 5.91084C64.1773 6.39751 63.994 6.77751 63.6273 7.05084C63.2606 7.32417 62.7773 7.46084 62.1773 7.46084ZM65.3013 7.36084V2.15084H65.9813V7.36084H65.3013ZM65.3013 1.06084V0.0608397H65.9813V1.06084H65.3013ZM69.029 7.36084L66.919 2.15084H67.629L69.409 6.68084L71.199 2.15084H71.869L69.759 7.36084H69.029ZM74.8553 7.46084C74.4819 7.46084 74.1353 7.39084 73.8153 7.25084C73.5019 7.10417 73.2286 6.90751 72.9953 6.66084C72.7686 6.40751 72.5919 6.12084 72.4653 5.80084C72.3386 5.47417 72.2753 5.13084 72.2753 4.77084C72.2753 4.39751 72.3386 4.05084 72.4653 3.73084C72.5919 3.40417 72.7719 3.11751 73.0053 2.87084C73.2386 2.61751 73.5119 2.42084 73.8253 2.28084C74.1453 2.13417 74.4919 2.06084 74.8653 2.06084C75.2386 2.06084 75.5819 2.13417 75.8953 2.28084C76.2086 2.42084 76.4819 2.61751 76.7153 2.87084C76.9486 3.11751 77.1286 3.40417 77.2553 3.73084C77.3819 4.05084 77.4453 4.39751 77.4453 4.77084C77.4453 5.13084 77.3819 5.47417 77.2553 5.80084C77.1286 6.12084 76.9486 6.40751 76.7153 6.66084C76.4886 6.90751 76.2153 7.10417 75.8953 7.25084C75.5819 7.39084 75.2353 7.46084 74.8553 7.46084ZM72.9653 4.78084C72.9653 5.16751 73.0486 5.52084 73.2153 5.84084C73.3886 6.15417 73.6186 6.40417 73.9053 6.59084C74.1919 6.77084 74.5086 6.86084 74.8553 6.86084C75.2019 6.86084 75.5186 6.76751 75.8053 6.58084C76.0919 6.39417 76.3219 6.14084 76.4953 5.82084C76.6686 5.49417 76.7553 5.14084 76.7553 4.76084C76.7553 4.37417 76.6686 4.02084 76.4953 3.70084C76.3219 3.38084 76.0919 3.12751 75.8053 2.94084C75.5186 2.75417 75.2019 2.66084 74.8553 2.66084C74.5086 2.66084 74.1919 2.75751 73.9053 2.95084C73.6253 3.14417 73.3986 3.40084 73.2253 3.72084C73.0519 4.03417 72.9653 4.38751 72.9653 4.78084Z" fill="#E2E7E9"/>
<path d="M48.621 63.3892C48.6952 63.6552 48.971 63.8106 49.237 63.7364C49.5029 63.6621 49.6584 63.3864 49.5842 63.1204L48.621 63.3892ZM13.9286 47.4349L13.4381 47.5317L13.9286 47.4349ZM30.5241 20.0182C30.2538 19.9616 29.9888 20.1349 29.9323 20.4051L29.0104 24.8097C28.9538 25.08 29.1271 25.345 29.3973 25.4015C29.6676 25.4581 29.9326 25.2848 29.9892 25.0146L30.8086 21.0994L34.7238 21.9188C34.9941 21.9754 35.259 21.8022 35.3156 21.5319C35.3722 21.2616 35.1989 20.9966 34.9287 20.9401L30.5241 20.0182ZM49.5842 63.1204C48.5352 59.3617 45.5974 55.7371 41.8936 52.6143C38.18 49.4834 33.6446 46.813 29.3126 44.9761C24.9954 43.1455 20.816 42.1155 17.8265 42.3318C16.332 42.4399 15.0528 42.8658 14.2315 43.7501C13.3914 44.6547 13.1233 45.9354 13.4381 47.5317L14.4192 47.3382C14.1449 45.9472 14.408 45.0295 14.9642 44.4306C15.5393 43.8115 16.5215 43.4288 17.8986 43.3292C20.6522 43.13 24.6562 44.0879 28.9222 45.8968C33.1732 47.6993 37.6206 50.3197 41.249 53.3789C44.8871 56.4462 47.6503 59.9111 48.621 63.3892L49.5842 63.1204ZM13.4381 47.5317C13.6848 48.7829 14.3943 49.6089 15.4343 49.9797C16.435 50.3365 17.6752 50.2488 18.9851 49.8608C21.6137 49.0823 24.7665 47.0237 27.477 44.1608C32.8961 38.4372 36.7421 29.2604 30.8401 20.2339L30.0032 20.7812C35.5454 29.2575 32.0078 37.9208 26.7508 43.4733C24.1233 46.2485 21.115 48.187 18.7011 48.902C17.4898 49.2608 16.4885 49.2939 15.7701 49.0378C15.0911 48.7957 14.6039 48.2751 14.4192 47.3382L13.4381 47.5317Z" fill="#7D298A"/>
</svg>
